<?xml version="1.0" standalone="no"?>
<!DOCTYPE svg PUBLIC "-//W3C//DTD SVG 20010904//EN"
 "http://www.w3.org/TR/2001/REC-SVG-20010904/DTD/svg10.dtd">
<svg version="1.0" xmlns="http://www.w3.org/2000/svg"
 width="1510.000000pt" height="375.000000pt" viewBox="0 0 1510.000000 375.000000"
 preserveAspectRatio="xMidYMid meet">

<g transform="translate(0.000000,375.000000) scale(0.100000,-0.100000)"
fill="#000000" stroke="none">
<path d="M0 1875 l0 -1875 7550 0 7550 0 0 1875 0 1875 -7550 0 -7550 0 0
-1875z m3549 1085 c226 -30 427 -135 570 -301 123 -142 204 -320 231 -508 16
-108 8 -352 -15 -446 -51 -214 -194 -431 -361 -551 -80 -57 -210 -118 -309
-146 -77 -21 -100 -23 -548 -26 l-468 -3 -30 31 -31 30 4 135 c3 132 4 135 31
162 l27 28 463 5 462 5 79 38 c142 68 255 214 297 387 20 79 17 279 -4 360
-50 187 -179 338 -337 392 -62 21 -84 22 -510 28 -478 5 -475 5 -499 57 -6 13
-11 78 -11 144 l0 121 34 34 34 34 409 0 c224 0 441 -5 482 -10z m2644 -1 c56
-29 57 -31 57 -332 0 -172 -4 -286 -10 -298 -21 -38 -62 -49 -184 -49 -68 0
-126 5 -141 12 -52 23 -55 44 -55 335 1 286 3 303 51 329 30 17 251 19 282 3z
m2481 1 c39 -15 57 -52 63 -133 9 -114 -3 -185 -37 -219 l-28 -28 -231 0
c-145 0 -232 -4 -236 -10 -7 -11 383 -1000 394 -1000 3 0 35 73 70 163 67 171
287 727 390 985 106 267 89 252 285 252 130 0 136 -1 165 -26 61 -51 75 -7
-327 -1000 -204 -501 -375 -921 -382 -933 -21 -39 -68 -51 -208 -51 -192 0
-162 -37 -359 450 -430 1061 -583 1447 -583 1464 0 26 30 73 54 85 28 13 935
15 970 1z m3748 -19 l33 -29 0 -136 c0 -135 0 -136 -28 -163 l-27 -28 -695 -3
-694 -2 -32 28 c-31 28 -33 33 -37 120 -6 126 3 179 38 214 l28 28 691 0 691
0 32 -29z m-6201 -799 l29 -32 0 -539 0 -539 -31 -26 c-30 -25 -35 -26 -166
-26 l-135 0 -29 29 -29 29 0 535 0 535 25 31 c32 37 43 40 188 38 l119 -2 29
-33z m6074 12 c35 -23 45 -64 45 -186 0 -121 -11 -156 -55 -176 -19 -9 -188
-12 -650 -12 l-625 0 -32 29 c-31 28 -32 31 -36 124 -6 128 3 179 35 211 l26
26 634 0 c558 0 637 -2 658 -16z m-7075 -709 c16 -8 34 -24 40 -34 6 -11 10
-93 10 -191 l0 -172 -30 -29 -30 -30 -161 3 -161 3 -24 28 c-23 27 -24 33 -24
198 0 97 4 179 10 189 22 40 58 49 203 50 104 0 145 -4 167 -15z m1995 3 c47
-21 55 -53 55 -222 0 -85 -4 -166 -10 -180 -17 -46 -55 -56 -215 -56 l-147 0
-29 29 -29 29 0 174 c0 240 -3 236 212 237 86 1 147 -3 163 -11z m3094 -3 c42
-21 51 -61 51 -220 0 -229 -6 -235 -219 -235 -83 0 -150 5 -165 11 -48 22 -58
63 -54 240 l3 161 33 29 32 29 146 0 c108 0 152 -4 173 -15z m2113 -104 c32
-29 32 -30 36 -135 5 -128 -2 -171 -33 -202 l-24 -24 -696 0 c-775 0 -735 -4
-755 69 -13 47 -13 196 0 243 6 20 22 46 37 58 25 20 36 20 714 20 l689 0 32
-29z"/>
</g>
</svg>
